<svg xmlns="http://www.w3.org/2000/svg" viewBox="339 399 347 226">
  <path d="M0 0 C2.91286278 1.45643139 5.42505219 2.86796524 8.10546875 4.66015625 C9.31614014 5.46791504 9.31614014 5.46791504 10.55126953 6.29199219 C11.42122559 6.87625977 12.29118164 7.46052734 13.1875 8.0625 C14.0935498 8.66868164 14.99959961 9.27486328 15.93310547 9.89941406 C26.55915797 17.02183842 37.13046279 24.22537583 47.69775391 31.43457031 C49.45901273 32.63215161 51.22786304 33.81857536 53 35 C53 35.66 53 36.32 53 37 C51.19140625 38.3046875 51.19140625 38.3046875 48.5625 39.875 C43.57579202 42.95746062 38.77297111 46.22173617 34 49.625 C27.62181536 54.16138692 21.20758283 58.63975441 14.75 63.0625 C13.95207031 63.6105127 13.15414063 64.15852539 12.33203125 64.72314453 C11.20087891 65.49634033 11.20087891 65.49634033 10.046875 66.28515625 C9.38526367 66.73769775 8.72365234 67.19023926 8.04199219 67.65649414 C5.73801534 69.17236987 3.36490713 70.58105572 1 72 C1 63.75 1 55.5 1 47 C-96.35 47 -193.7 47 -294 47 C-294 39.74 -294 32.48 -294 25 C-196.98 25 -99.96 25 0 25 C0 16.75 0 8.5 0 0 Z" fill="#080808" transform="translate(633,476)"/>
  <path d="M0 0 C68.31 0 136.62 0 207 0 C207 6.93 207 13.86 207 21 C138.69 21 70.38 21 0 21 C0 14.07 0 7.14 0 0 Z" fill="#010101" transform="translate(339,553)"/>
  <path d="M0 0 C68.31 0 136.62 0 207 0 C207 6.93 207 13.86 207 21 C138.69 21 70.38 21 0 21 C0 14.07 0 7.14 0 0 Z" fill="#010101" transform="translate(339,450)"/>
  <path d="M0 0 C37.95 0 75.9 0 115 0 C115 6.93 115 13.86 115 21 C77.05 21 39.1 21 0 21 C0 14.07 0 7.14 0 0 Z" fill="#020202" transform="translate(339,604)"/>
  <path d="M0 0 C37.95 0 75.9 0 115 0 C115 6.93 115 13.86 115 21 C77.05 21 39.1 21 0 21 C0 14.07 0 7.14 0 0 Z" fill="#020202" transform="translate(339,399)"/>
</svg>
